General
Complete name                            :
Format                                   : MPEG-PS
File size                                : 4.84 MiB
Duration                                 : 10s 110ms
Overall bit rate mode                    : Variable
Overall bit rate                         : 4 014 Kbps

Video
ID                                       : 224 (0xE0)
Format                                   : MPEG Video
Format version                           : Version 2
Format profile                           : Main@Main
Format settings, BVOP                    : No
Format settings, Matrix                  : Default
Format settings, GOP                     : N=18
Duration                                 : 10s 110ms
Bit rate mode                            : Variable
Bit rate                                 : 3 486 Kbps
Maximum bit rate                         : 9 000 Kbps
Width                                    : 720 pixels
Height                                   : 480 pixels
Display aspect ratio                     : 16:9
Frame rate                               : 29.970 fps
Standard                                 : NTSC
Color space                              : YUV
Chroma subsampling                       : 4:2:0
Bit depth                                : 8 bits
Scan type                                : Progressive
Compression mode                         : Lossy
Bits/(Pixel*Frame)                       : 0.337
Time code of first frame                 : 00:00:00:00
Time code source                         : Group of pictures header
GOP, Open/Closed                         : Open
GOP, Open/Closed of first frame          : Closed
Stream size                              : 4.20 MiB (87%)

Audio
ID                                       : 189 (0xBD)-128 (0x80)
Format                                   : AC-3
Format/Info                              : Audio Coding 3
Mode extension                           : CM (complete main)
Format settings, Endianness              : Big
Muxing mode                              : DVD-Video
Duration                                 : 10s 16ms
Bit rate mode                            : Constant
Bit rate                                 : 448 Kbps
Channel(s)                               : 2 channels
Channel positions                        : Front: L R
Sampling rate                            : 48.0 KHz
Compression mode                         : Lossy
Delay relative to video                  : -5ms
Stream size                              : 548 KiB (11%)

Menu


